<mxfile host="Electron" modified="2024-02-25T10:31:13.368Z" agent="Mozilla/5.0 (X11; Linux x86_64) AppleWebKit/537.36 (KHTML, like Gecko) draw.io/23.1.5 Chrome/120.0.6099.109 Electron/28.2.3 Safari/537.36" etag="8_3l-z7ywStucBdLNisW" version="23.1.5" type="device">
  <diagram name="Page-1" id="vbzyzNC-0oMa6yevbNM8">
    <mxGraphModel dx="812" dy="477" grid="1" gridSize="10" guides="1" tooltips="1" connect="1" arrows="1" fold="1" page="1" pageScale="1" pageWidth="850" pageHeight="1100" math="0" shadow="0">
      <root>
        <mxCell id="0" />
        <mxCell id="1" parent="0" />
        <mxCell id="UKyXUSmGH4XNvsYCUbRV-1" value="&lt;div style=&quot;&quot;&gt;&lt;span style=&quot;background-color: initial;&quot;&gt;&amp;nbsp; Webserver&lt;/span&gt;&lt;/div&gt;&lt;br&gt;&lt;br&gt;&lt;br&gt;&lt;br&gt;&lt;br&gt;&lt;br&gt;" style="rounded=1;whiteSpace=wrap;html=1;align=left;fillColor=none;" parent="1" vertex="1">
          <mxGeometry x="430" y="810" width="190" height="110" as="geometry" />
        </mxCell>
        <mxCell id="UKyXUSmGH4XNvsYCUbRV-2" value="Lean Language Server" style="rounded=1;whiteSpace=wrap;html=1;fillColor=none;" parent="1" vertex="1">
          <mxGeometry x="465" y="840" width="120" height="60" as="geometry" />
        </mxCell>
        <mxCell id="UKyXUSmGH4XNvsYCUbRV-5" value="&lt;div style=&quot;&quot;&gt;&lt;span style=&quot;background-color: initial;&quot;&gt;&amp;nbsp; &amp;nbsp;Browser&lt;/span&gt;&lt;/div&gt;&lt;br&gt;&lt;br&gt;&lt;br&gt;&lt;br&gt;&lt;br&gt;&lt;br&gt;" style="rounded=1;whiteSpace=wrap;html=1;align=left;fillColor=none;" parent="1" vertex="1">
          <mxGeometry x="430" y="600" width="190" height="110" as="geometry" />
        </mxCell>
        <mxCell id="UKyXUSmGH4XNvsYCUbRV-13" value="Lean&lt;br&gt;&amp;nbsp;Infoansicht" style="edgeStyle=orthogonalEdgeStyle;rounded=0;orthogonalLoop=1;jettySize=auto;html=1;labelBackgroundColor=default;verticalAlign=top;horizontal=1;labelPosition=center;verticalLabelPosition=bottom;align=center;startArrow=classic;startFill=1;endArrow=none;endFill=0;" parent="1" source="UKyXUSmGH4XNvsYCUbRV-7" target="UKyXUSmGH4XNvsYCUbRV-2" edge="1">
          <mxGeometry x="-0.0016" relative="1" as="geometry">
            <Array as="points">
              <mxPoint x="550" y="750" />
              <mxPoint x="550" y="750" />
            </Array>
            <mxPoint as="offset" />
          </mxGeometry>
        </mxCell>
        <mxCell id="UKyXUSmGH4XNvsYCUbRV-7" value="Monaco Editor (LSP Client)" style="rounded=1;whiteSpace=wrap;html=1;fillColor=none;" parent="1" vertex="1">
          <mxGeometry x="465" y="630" width="120" height="60" as="geometry" />
        </mxCell>
        <mxCell id="UKyXUSmGH4XNvsYCUbRV-14" value="Ã„nderungen" style="edgeStyle=orthogonalEdgeStyle;rounded=0;orthogonalLoop=1;jettySize=auto;html=1;labelBackgroundColor=default;verticalAlign=top;labelPosition=center;verticalLabelPosition=bottom;align=center;" parent="1" edge="1">
          <mxGeometry relative="1" as="geometry">
            <mxPoint x="500" y="690" as="sourcePoint" />
            <mxPoint x="500" y="840" as="targetPoint" />
            <Array as="points">
              <mxPoint x="500" y="750" />
              <mxPoint x="500" y="750" />
            </Array>
          </mxGeometry>
        </mxCell>
      </root>
    </mxGraphModel>
  </diagram>
</mxfile>
